<svg width="63" height="133" viewBox="0 0 63 133" fill="none" xmlns="http://www.w3.org/2000/svg">
<path d="M1.27344 36.9672C6.14962 34.6805 10.2126 34.3019 11.1253 38.064C11.7397 40.5962 11.2267 42.6675 8.24222 44.0812C5.25778 45.4949 2.27334 55.8619 9.81298 60.8883C9.49883 48.0081 10.9241 46.1214 16.2531 46.7515C19.6867 47.1574 19.8658 52.9534 18.6092 56.7232C23.6089 56.7232 34.7896 46.7515 18.6092 41.4109C20.4941 23.7121 2.66614 25.6261 1.27344 36.9672Z" fill="#E40527" stroke="#E40527" stroke-width="2.09953"/>
<path d="M60.957 36.9672C56.0809 34.6805 52.0179 34.3019 51.1052 38.064C50.4908 40.5962 51.0038 42.6675 53.9883 44.0812C56.9727 45.4949 59.9571 55.8619 52.4175 60.8883C52.7316 48.0081 51.3063 46.1214 45.9774 46.7515C42.5438 47.1574 42.3646 52.9534 43.6213 56.7232C38.6216 56.7232 27.4409 46.7515 43.6213 41.4109C41.7363 23.7121 59.5643 25.6261 60.957 36.9672Z" fill="#E40527" stroke="#E40527" stroke-width="2.09953"/>
<path d="M9.33994 20.2147C20.8069 21.6269 24.482 0.924598 12.7958 1.05038C10.5444 1.10259 6.10462 2.08665 6.35594 5.60515C6.60726 9.12365 8.39818 11.417 13.7388 10.6316C15.3095 10.6316 13.5803 18.4884 9.33994 20.2147Z" fill="#E40527" stroke="#E40527" stroke-width="2.09953"/>
<path d="M53.1269 20.2147C41.6599 21.6269 37.9848 0.924598 49.671 1.05038C51.9224 1.10259 56.3622 2.08665 56.1109 5.60515C55.8595 9.12365 54.0686 11.417 48.728 10.6316C47.1573 10.6316 48.8865 18.4884 53.1269 20.2147Z" fill="#E40527" stroke="#E40527" stroke-width="2.09953"/>
<circle cx="31.2319" cy="23.0552" r="7.94295" stroke="#E40527" stroke-width="4.19906"/>
<path d="M33.0756 62.8135C29.136 68.4018 17.1314 74.4457 30.4052 82.8405V89.7793C23.7888 74.6658 9.61395 78.3584 6.78315 84.9962C25.4274 82.9463 24.7233 87.0461 30.906 98.6621C16.9591 89.4036 7.27122 95.9289 6.29492 102.371C21.4251 102.371 20.5461 113.499 20.7413 118.087C20.9366 122.675 22.4984 131.753 33.724 131.558C44.9496 131.363 45.34 122.675 45.8281 118.087C46.3162 113.499 48.8541 100.029 59.6893 102.371C57.2489 91.5363 43.0949 92.5125 35.2857 98.6621C45.4375 80.7012 46.1209 84.5081 57.3465 84.9962C48.3661 72.5016 38.8975 82.9788 35.2857 89.7793V87.0461V82.8405C48.0731 73.559 35.6762 68.4994 33.0756 62.8135Z" fill="#E40527"/>
<path d="M30.4052 82.8405C17.1314 74.4457 29.136 68.4018 33.0756 62.8135C35.6762 68.4994 48.0731 73.559 35.2857 82.8405V87.0461V89.7793C38.8975 82.9788 48.3661 72.5016 57.3465 84.9962C46.1209 84.5081 45.4375 80.7012 35.2857 98.6621C43.0949 92.5125 57.2489 91.5363 59.6893 102.371C48.8541 100.029 46.3162 113.499 45.8281 118.087C45.34 122.675 44.9496 131.363 33.724 131.558C22.4984 131.753 20.9366 122.675 20.7413 118.087C20.5461 113.499 21.4251 102.371 6.29492 102.371C7.27122 95.9289 16.9591 89.4036 30.906 98.6621C24.7233 87.0461 25.4274 82.9463 6.78315 84.9962C9.61395 78.3584 23.7888 74.6658 30.4052 89.7793M30.4052 82.8405C30.4052 83.559 30.4052 88.1394 30.4052 89.7793M30.4052 82.8405V89.7793" stroke="#E40527" stroke-width="2.09953"/>
</svg>
