<svg width="134" height="90" viewBox="0 0 134 90" fill="none" xmlns="http://www.w3.org/2000/svg">
<path d="M1.27344 22.4506C6.14962 20.1639 10.2126 19.7853 11.1253 23.5474C11.7397 26.0796 11.2267 28.1509 8.24222 29.5646C5.25778 30.9783 2.27334 41.3453 9.81298 46.3717C9.49883 33.4915 10.9241 31.6048 16.2531 32.2349C19.6867 32.6408 19.8658 38.4368 18.6092 42.2066C23.6089 42.2066 34.7896 32.2349 18.6092 26.8943C20.4941 9.1955 2.66614 11.1095 1.27344 22.4506Z" fill="#FAF5F1" stroke="#FAF5F1" stroke-width="2.09953"/>
<path d="M60.958 22.4506C56.0818 20.1639 52.0189 19.7853 51.1061 23.5474C50.4918 26.0796 51.0048 28.1509 53.9892 29.5646C56.9737 30.9783 59.9581 41.3453 52.4185 46.3717C52.7326 33.4915 51.3073 31.6048 45.9784 32.2349C42.5448 32.6408 42.3656 38.4368 43.6222 42.2066C38.6225 42.2066 27.4419 32.2349 43.6222 26.8943C41.7373 9.1955 59.5653 11.1095 60.958 22.4506Z" fill="#FAF5F1" stroke="#FAF5F1" stroke-width="2.09953"/>
<path d="M9.33994 5.69813C20.8069 7.11028 24.482 -13.592 12.7958 -13.4662C10.5444 -13.414 6.10462 -12.4299 6.35594 -8.91145C6.60726 -5.39295 8.39818 -3.09965 13.7388 -3.88503C15.3095 -3.88503 13.5803 3.97183 9.33994 5.69813Z" fill="#FAF5F1" stroke="#FAF5F1" stroke-width="2.09953"/>
<path d="M53.1278 5.69813C41.6609 7.11028 37.9858 -13.592 49.672 -13.4662C51.9233 -13.414 56.3632 -12.4299 56.1118 -8.91145C55.8605 -5.39295 54.0696 -3.09965 48.729 -3.88503C47.1583 -3.88503 48.8875 3.97183 53.1278 5.69813Z" fill="#FAF5F1" stroke="#FAF5F1" stroke-width="2.09953"/>
<circle cx="31.2329" cy="8.53662" r="7.94295" stroke="#FAF5F1" stroke-width="4.19906"/>
<path d="M33.0776 48.2969C29.138 53.8852 17.1334 59.9291 30.4071 68.3239V75.2627C23.7907 60.1492 9.61591 63.8418 6.7851 70.4796C25.4294 68.4297 24.7253 72.5295 30.908 84.1455C16.961 74.887 7.27317 81.4123 6.29688 87.8549C21.427 87.8549 20.5481 98.9828 20.7433 103.571C20.9385 108.159 22.5003 117.237 33.7259 117.041C44.9515 116.846 45.342 108.159 45.8301 103.571C46.3181 98.9828 48.8561 85.5121 59.6912 87.8549C57.2509 77.0197 43.0969 77.9959 35.2877 84.1455C45.4394 66.1846 46.1229 69.9915 57.3485 70.4796C48.368 57.985 38.8994 68.4622 35.2877 75.2627V72.5295V68.3239C48.0751 59.0424 35.6781 53.9828 33.0776 48.2969Z" fill="#FAF5F1"/>
<path d="M30.4071 68.3239C17.1334 59.9291 29.138 53.8852 33.0776 48.2969C35.6781 53.9828 48.0751 59.0424 35.2877 68.3239V72.5295V75.2627C38.8994 68.4622 48.368 57.985 57.3485 70.4796C46.1229 69.9915 45.4394 66.1846 35.2877 84.1455C43.0969 77.9959 57.2509 77.0197 59.6912 87.8549C48.8561 85.5121 46.3181 98.9828 45.8301 103.571C45.342 108.159 44.9515 116.846 33.7259 117.041C22.5003 117.237 20.9385 108.159 20.7433 103.571C20.5481 98.9828 21.427 87.8549 6.29688 87.8549C7.27317 81.4123 16.961 74.887 30.908 84.1455C24.7253 72.5295 25.4294 68.4297 6.7851 70.4796C9.61591 63.8418 23.7907 60.1492 30.4071 75.2627M30.4071 68.3239C30.4071 69.0424 30.4071 73.6227 30.4071 75.2627M30.4071 68.3239V75.2627" stroke="#FAF5F1" stroke-width="2.09953"/>
<path d="M72.8096 81.1275C77.6858 83.4142 81.7487 83.7928 82.6614 80.0308C83.2758 77.4985 82.7628 75.4272 79.7784 74.0135C76.7939 72.5998 73.8095 62.2329 81.3491 57.2064C81.035 70.0866 82.4603 71.9733 87.7892 71.3432C91.2228 70.9373 91.402 65.1413 90.1453 61.3715C95.145 61.3715 106.326 71.3432 90.1453 76.6838C92.0303 94.3826 74.2023 92.4686 72.8096 81.1275Z" fill="#FAF5F1" stroke="#FAF5F1" stroke-width="2.09953"/>
<path d="M132.494 81.1275C127.618 83.4142 123.555 83.7928 122.642 80.0308C122.028 77.4985 122.541 75.4272 125.525 74.0135C128.51 72.5998 131.494 62.2329 123.955 57.2064C124.269 70.0866 122.843 71.9733 117.514 71.3432C114.081 70.9373 113.902 65.1413 115.158 61.3715C110.159 61.3715 98.978 71.3432 115.158 76.6838C113.273 94.3826 131.101 92.4686 132.494 81.1275Z" fill="#FAF5F1" stroke="#FAF5F1" stroke-width="2.09953"/>
<circle cx="10.0425" cy="10.0425" r="7.94295" transform="matrix(1 0 0 -1 92.7256 105.082)" stroke="#FAF5F1" stroke-width="4.19906"/>
<path d="M104.613 55.2812C100.673 49.6929 88.6685 43.649 101.942 35.2543V28.3155C95.3259 43.4289 81.1511 39.7363 78.3203 33.0985C96.9645 35.1484 96.2605 31.0487 102.443 19.4326C88.4962 28.6911 78.8083 22.1658 77.832 15.7233C92.9622 15.7233 92.0832 4.59528 92.2784 0.00742722C92.4737 -4.58043 94.0355 -13.6585 105.261 -13.4633C116.487 -13.2681 116.877 -4.58043 117.365 0.00742722C117.853 4.59528 120.391 18.066 131.226 15.7233C128.786 26.5584 114.632 25.5823 106.823 19.4326C116.975 37.3936 117.658 33.5866 128.884 33.0985C119.903 45.5931 110.435 35.1159 106.823 28.3155V31.0487V35.2543C119.61 44.5358 107.213 49.5953 104.613 55.2812Z" fill="#FAF5F1"/>
<path d="M101.942 35.2543C88.6685 43.649 100.673 49.6929 104.613 55.2812C107.213 49.5953 119.61 44.5358 106.823 35.2543V31.0487V28.3155C110.435 35.1159 119.903 45.5931 128.884 33.0985C117.658 33.5866 116.975 37.3936 106.823 19.4326C114.632 25.5823 128.786 26.5584 131.226 15.7233C120.391 18.066 117.853 4.59528 117.365 0.00742826C116.877 -4.58042 116.487 -13.2681 105.261 -13.4633C94.0355 -13.6585 92.4737 -4.58043 92.2784 0.00742826C92.0832 4.59528 92.9622 15.7233 77.832 15.7233C78.8083 22.1658 88.4962 28.6911 102.443 19.4326C96.2605 31.0487 96.9645 35.1484 78.3203 33.0985C81.1511 39.7363 95.3259 43.4289 101.942 28.3155M101.942 35.2543C101.942 34.5357 101.942 29.9554 101.942 28.3155M101.942 35.2543V28.3155" stroke="#FAF5F1" stroke-width="2.09953"/>
</svg>
