<svg width="245" height="101" viewBox="0 0 245 101" fill="none" xmlns="http://www.w3.org/2000/svg">
<path d="M16.8418 17.5309H23.7596C23.3974 20.3318 22.2263 22.5773 20.2464 24.2676C18.2906 25.9578 15.7432 26.8029 12.6042 26.8029C8.66842 26.8029 5.57775 25.5956 3.33218 23.181C1.11076 20.7423 5.06982e-05 17.4826 5.06982e-05 13.4019C5.06982e-05 9.32125 1.11076 6.07363 3.33218 3.65904C5.57775 1.22031 8.66842 0.000939671 12.6042 0.000939671C15.5983 0.000939671 18.0491 0.785681 19.9566 2.35516C21.8883 3.9005 23.0835 5.94083 23.5423 8.47615H16.5521C16.1174 6.78594 14.8015 5.94083 12.6042 5.94083C10.7691 5.94083 9.35658 6.62899 8.3666 8.0053C7.37662 9.35747 6.88163 11.1563 6.88163 13.4019C6.88163 15.6475 7.37662 17.4584 8.3666 18.8347C9.35658 20.1869 10.7691 20.863 12.6042 20.863C13.7874 20.863 14.7411 20.5732 15.4655 19.9937C16.214 19.4142 16.6728 18.5933 16.8418 17.5309ZM47.9908 26.332H32.7427V32.6703H26.2233V20.3921H28.9035C30.7869 17.4222 31.7286 13.414 31.7286 8.36749V0.471785H50.8521V20.3921H54.5102V32.6703H47.9908V26.332ZM44.3327 20.3921V6.41167H37.7771V8.36749C37.7771 13.8728 37.0165 17.881 35.4954 20.3921H44.3327ZM74.8723 16.0459H64.8759V20.3921H78.3131V26.332H58.1392V0.471785H77.9871V6.41167H64.8759V10.2509H74.8723V16.0459ZM80.7327 26.332V19.8126H81.7468C82.7368 19.8126 83.4491 19.6798 83.8837 19.4142C84.3425 19.1245 84.6926 18.4122 84.9341 17.2773C85.1997 16.1425 85.3325 14.3677 85.3325 11.9532V0.471785H105.361V26.332H98.6248V6.41167H91.5621V12.1342C91.5621 15.1766 91.3689 17.6516 90.9826 19.5591C90.6204 21.4425 89.9926 22.8792 89.0992 23.8692C88.23 24.8591 87.24 25.5231 86.1293 25.8612C85.0186 26.1751 83.5698 26.332 81.783 26.332H80.7327ZM126.702 0.471785L134.453 26.332H127.752L125.869 19.6315H117.176L115.329 26.332H108.773L116.524 0.471785H126.702ZM120.726 6.8463L118.625 14.3436H124.384L122.319 6.8463H120.726ZM154.198 0.471785H160.934V26.332H154.198V16.0821H144.6V26.332H137.863V0.471785H144.6V10.0336H154.198V0.471785ZM168.795 3.73148C171.064 1.24445 174.239 0.000939671 178.32 0.000939671C182.401 0.000939671 185.576 1.24445 187.846 3.73148C190.115 6.21851 191.25 9.44198 191.25 13.4019C191.25 17.3618 190.115 20.5853 187.846 23.0723C185.576 25.5594 182.401 26.8029 178.32 26.8029C174.239 26.8029 171.064 25.5594 168.795 23.0723C166.525 20.5853 165.39 17.3618 165.39 13.4019C165.39 9.44198 166.525 6.21851 168.795 3.73148ZM173.829 18.8347C174.867 20.1869 176.364 20.863 178.32 20.863C180.276 20.863 181.773 20.1869 182.811 18.8347C183.849 17.4584 184.369 15.6475 184.369 13.4019C184.369 11.1563 183.849 9.35747 182.811 8.0053C181.773 6.62899 180.276 5.94083 178.32 5.94083C176.364 5.94083 174.867 6.61691 173.829 7.96908C172.791 9.32125 172.272 11.1322 172.272 13.4019C172.272 15.6475 172.791 17.4584 173.829 18.8347ZM19.9566 49.4964V50.5106C20.8259 50.9452 21.5744 51.6333 22.2022 52.575C22.8541 53.4926 23.1801 54.5429 23.1801 55.7261C23.1801 58.0199 22.4316 59.8671 20.9345 61.2676C19.4375 62.6439 17.1919 63.332 14.1978 63.332H1.12283V37.4718H13.7994C16.6245 37.4718 18.7735 38.1358 20.2464 39.4638C21.7434 40.7918 22.4919 42.4821 22.4919 44.5345C22.4919 45.6452 22.2505 46.6472 21.7676 47.5406C21.3088 48.4099 20.7051 49.0618 19.9566 49.4964ZM7.85954 42.9046V47.3595H12.894C14.6808 47.3595 15.5741 46.6231 15.5741 45.1502C15.5741 43.6531 14.6566 42.9046 12.8215 42.9046H7.85954ZM7.85954 57.7905H13.1113C14.0047 57.7905 14.7532 57.5974 15.3568 57.211C15.9605 56.8247 16.2623 56.209 16.2623 55.3639C16.2623 53.6495 15.2482 52.7924 13.2199 52.7924H7.85954V57.7905ZM56.0957 37.4718V43.4117H48.3448V63.332H41.6081V43.4117H33.8935V37.4718H56.0957ZM69.3003 47.7942H70.3144L75.2039 37.4718H81.9044L69.5176 63.332H62.8895L66.5838 55.5812L56.9859 37.4718H63.9399L69.3003 47.7942ZM81.723 63.332V56.8126H82.7372C83.7271 56.8126 84.4394 56.6798 84.8741 56.4142C85.3328 56.1245 85.683 55.4122 85.9244 54.2773C86.19 53.1425 86.3228 51.3677 86.3228 48.9532V37.4718H106.352V63.332H99.6151V43.4117H92.5525V49.1342C92.5525 52.1766 92.3593 54.6516 91.973 56.5591C91.6108 58.4425 90.983 59.8792 90.0896 60.8692C89.2203 61.8591 88.2303 62.5231 87.1196 62.8612C86.0089 63.1751 84.5602 63.332 82.7734 63.332H81.723ZM118.674 45.621H124.143C127.306 45.621 129.757 46.3937 131.495 47.939C133.234 49.4602 134.103 51.6092 134.103 54.386C134.103 57.211 133.234 59.4083 131.495 60.9778C129.757 62.5473 127.306 63.332 124.143 63.332H111.937V37.4718H118.674V45.621ZM118.674 57.5732H123.129C124.601 57.5732 125.652 57.3197 126.28 56.8126C126.907 56.2814 127.221 55.4967 127.221 54.4584C127.221 53.4201 126.907 52.6475 126.28 52.1404C125.652 51.6333 124.601 51.3798 123.129 51.3798H118.674V57.5732ZM154.289 54.5309H161.207C160.845 57.3318 159.674 59.5773 157.694 61.2676C155.738 62.9578 153.191 63.8029 150.052 63.8029C146.116 63.8029 143.025 62.5956 140.78 60.181C138.558 57.7423 137.448 54.4826 137.448 50.4019C137.448 46.3213 138.558 43.0736 140.78 40.659C143.025 38.2203 146.116 37.0009 150.052 37.0009C153.046 37.0009 155.497 37.7857 157.404 39.3552C159.336 40.9005 160.531 42.9408 160.99 45.4761H154C153.565 43.7859 152.249 42.9408 150.052 42.9408C148.217 42.9408 146.804 43.629 145.814 45.0053C144.824 46.3575 144.329 48.1563 144.329 50.4019C144.329 52.6475 144.824 54.4584 145.814 55.8347C146.804 57.1869 148.217 57.863 150.052 57.863C151.235 57.863 152.189 57.5732 152.913 56.9937C153.662 56.4142 154.12 55.5933 154.289 54.5309ZM165.699 63.332V37.4718H172.436V46.9973H177.651L182.106 37.4718H188.879L183.084 50.0397L189.205 63.332H182.432L177.688 53.0459H172.436V63.332H165.699ZM194.579 40.7315C196.849 38.2445 200.024 37.0009 204.105 37.0009C208.185 37.0009 211.361 38.2445 213.63 40.7315C215.9 43.2185 217.035 46.442 217.035 50.4019C217.035 54.3618 215.9 57.5853 213.63 60.0723C211.361 62.5594 208.185 63.8029 204.105 63.8029C200.024 63.8029 196.849 62.5594 194.579 60.0723C192.309 57.5853 191.175 54.3618 191.175 50.4019C191.175 46.442 192.309 43.2185 194.579 40.7315ZM199.614 55.8347C200.652 57.1869 202.149 57.863 204.105 57.863C206.061 57.863 207.558 57.1869 208.596 55.8347C209.634 54.4584 210.153 52.6475 210.153 50.4019C210.153 48.1563 209.634 46.3575 208.596 45.0053C207.558 43.629 206.061 42.9408 204.105 42.9408C202.149 42.9408 200.652 43.6169 199.614 44.9691C198.575 46.3213 198.056 48.1322 198.056 50.4019C198.056 52.6475 198.575 54.4584 199.614 55.8347ZM221.478 37.4718H227.635V53.8065H228.649L236.291 37.4718H244.947V63.332H238.79V46.9973H237.776L230.134 63.332H221.478V37.4718ZM238.247 34.6829C237.04 35.6488 235.362 36.1317 233.213 36.1317C231.064 36.1317 229.385 35.6488 228.178 34.6829C226.971 33.693 226.259 32.3287 226.041 30.5902H230.822C231.184 31.7009 231.981 32.2563 233.213 32.2563C234.444 32.2563 235.241 31.7009 235.603 30.5902H240.384C240.167 32.3287 239.454 33.693 238.247 34.6829ZM3.40462 77.7315C5.67433 75.2445 8.84952 74.0009 12.9302 74.0009C17.0108 74.0009 20.186 75.2445 22.4557 77.7315C24.7254 80.2185 25.8603 83.442 25.8603 87.4019C25.8603 91.3618 24.7254 94.5853 22.4557 97.0723C20.186 99.5594 17.0108 100.803 12.9302 100.803C8.84952 100.803 5.67433 99.5594 3.40462 97.0723C1.13491 94.5853 5.06982e-05 91.3618 5.06982e-05 87.4019C5.06982e-05 83.442 1.13491 80.2185 3.40462 77.7315ZM8.43904 92.8347C9.47731 94.1869 10.9744 94.863 12.9302 94.863C14.886 94.863 16.383 94.1869 17.4213 92.8347C18.4596 91.4584 18.9787 89.6475 18.9787 87.4019C18.9787 85.1563 18.4596 83.3575 17.4213 82.0053C16.383 80.629 14.886 79.9408 12.9302 79.9408C10.9744 79.9408 9.47731 80.6169 8.43904 81.9691C7.40077 83.3213 6.88163 85.1322 6.88163 87.4019C6.88163 89.6475 7.40077 91.4584 8.43904 92.8347ZM37.0397 80.4117V83.8887H43.1969C46.1427 83.8887 48.4245 84.6131 50.0423 86.0618C51.6601 87.4864 52.469 89.4785 52.469 92.0379C52.469 94.6457 51.6601 96.686 50.0423 98.1589C48.4245 99.6077 46.1427 100.332 43.1969 100.332H30.303V74.4718H50.0423V80.4117H37.0397ZM37.0397 94.5732H42.0017C43.2815 94.5732 44.199 94.3559 44.7544 93.9213C45.3097 93.4625 45.5874 92.7744 45.5874 91.8568C45.5874 90.07 44.3922 89.1766 42.0017 89.1766H37.0397V94.5732ZM55.0895 100.332V93.8126H56.1036C57.0936 93.8126 57.8059 93.6798 58.2405 93.4142C58.6993 93.1245 59.0494 92.4122 59.2908 91.2773C59.5564 90.1425 59.6892 88.3677 59.6892 85.9532V74.4718H79.7183V100.332H72.9816V80.4117H65.9189V86.1342C65.9189 89.1766 65.7257 91.6516 65.3394 93.5591C64.9772 95.4425 64.3494 96.8792 63.456 97.8692C62.5868 98.8591 61.5968 99.5231 60.4861 99.8612C59.3754 100.175 57.9266 100.332 56.1398 100.332H55.0895ZM101.059 74.4718L108.809 100.332H102.109L100.225 93.6315H91.533L89.6858 100.332H83.1302L90.881 74.4718H101.059ZM95.0824 80.8463L92.9817 88.3436H98.7405L96.676 80.8463H95.0824ZM127.408 91.5309H134.326C133.964 94.3318 132.793 96.5773 130.813 98.2676C128.857 99.9578 126.31 100.803 123.171 100.803C119.235 100.803 116.144 99.5956 113.899 97.181C111.677 94.7423 110.567 91.4826 110.567 87.4019C110.567 83.3213 111.677 80.0736 113.899 77.659C116.144 75.2203 119.235 74.0009 123.171 74.0009C126.165 74.0009 128.616 74.7857 130.523 76.3552C132.455 77.9005 133.65 79.9408 134.109 82.4761H127.119C126.684 80.7859 125.368 79.9408 123.171 79.9408C121.336 79.9408 119.923 80.629 118.933 82.0053C117.943 83.3575 117.448 85.1563 117.448 87.4019C117.448 89.6475 117.943 91.4584 118.933 92.8347C119.923 94.1869 121.336 94.863 123.171 94.863C124.354 94.863 125.308 94.5732 126.032 93.9937C126.78 93.4142 127.239 92.5933 127.408 91.5309ZM158.775 74.4718V80.4117H151.024V100.332H144.287V80.4117H136.572V74.4718H158.775ZM162.091 74.4718H168.249V90.8065H169.263L176.905 74.4718H185.561V100.332H179.404V83.9973H178.39L170.748 100.332H162.091V74.4718Z" fill="url(#paint0_linear_2168_2193)"/>
<defs>
<linearGradient id="paint0_linear_2168_2193" x1="8.34615" y1="44.6209" x2="183.069" y2="117.746" gradientUnits="userSpaceOnUse">
<stop stop-color="#2B255C"/>
<stop offset="0.341346" stop-color="#8C1D82"/>
<stop offset="0.711538" stop-color="#E73331"/>
<stop offset="1" stop-color="#F59C00"/>
</linearGradient>
</defs>
</svg>
