<svg width="26" height="25" viewBox="0 0 26 25" fill="none" xmlns="http://www.w3.org/2000/svg">
<g clip-path="url(#clip0_2062_4414)">
<path d="M14.934 15.6487C14.2965 16.0809 13.5559 16.3094 12.7924 16.3094C12.0289 16.3094 11.2884 16.0809 10.6508 15.6487L0.150114 8.52932C0.0921458 8.48991 0.0352505 8.44889 -0.0205078 8.4063L-0.0205078 20.0721C-0.0205078 21.4096 1.04682 22.4711 2.33852 22.4711H23.2462C24.5614 22.4711 25.6052 21.3857 25.6052 20.0721V8.40625C25.5494 8.44895 25.4924 8.49006 25.4343 8.52953L14.934 15.6487Z" fill="#8F8F8F"/>
<path d="M0.983003 7.25875L11.4837 14.3782C11.8812 14.6477 12.3368 14.7824 12.7923 14.7824C13.2479 14.7824 13.7036 14.6476 14.1011 14.3782L24.6018 7.25875C25.2302 6.83298 25.6053 6.1204 25.6053 5.35132C25.6053 4.02892 24.5474 2.95312 23.2471 2.95312H2.33772C1.03741 2.95318 -0.0205066 4.02897 -0.0205066 5.35259C-0.0208964 5.72986 0.0705353 6.10135 0.245634 6.43395C0.420732 6.76655 0.674053 7.0499 0.983003 7.25875Z" fill="#8F8F8F"/>
</g>
<defs>
<clipPath id="clip0_2062_4414">
<rect width="26" height="25" fill="white"/>
</clipPath>
</defs>
</svg>
