<svg width="17" height="25" viewBox="0 0 17 25" fill="none" xmlns="http://www.w3.org/2000/svg">
<path d="M12.2695 10.2196C11.7189 10.7764 11.0633 11.2185 10.3406 11.5203C9.6179 11.822 8.84254 11.9774 8.05939 11.9774C7.27625 11.9774 6.50089 11.822 5.77821 11.5203C5.05553 11.2185 4.39989 10.7764 3.84926 10.2196C3.01917 9.38153 2.45458 8.31736 2.2261 7.16015C1.99762 6.00294 2.11539 4.80405 2.56469 3.71342C3.01398 2.62279 3.77485 1.68883 4.75214 1.02834C5.72943 0.367857 6.87977 0.0101645 8.05927 0C9.24101 0.00806855 10.394 0.36502 11.3736 1.02605C12.3532 1.68708 13.1157 2.62274 13.5655 3.71558C14.0152 4.80843 14.1321 6.00976 13.9015 7.16881C13.6709 8.32785 13.1031 9.39296 12.2693 10.2304L12.2695 10.2196ZM8.04838 3.26571C7.33028 3.2691 6.64275 3.55674 6.13617 4.06571C5.6296 4.57469 5.3452 5.26357 5.3452 5.98167C5.3452 6.69978 5.6296 7.38866 6.13617 7.89763C6.64275 8.40661 7.33028 8.69425 8.04838 8.69764C8.76648 8.69425 9.45401 8.40661 9.96059 7.89763C10.4672 7.38866 10.7516 6.69978 10.7516 5.98167C10.7516 5.26357 10.4672 4.57469 9.96059 4.06571C9.45401 3.55674 8.76648 3.2691 8.04838 3.26571ZM14.3135 11.9971L16.0575 14.3965C16.1463 14.5187 16.1241 14.6853 16.013 14.7741C14.5685 15.952 12.874 16.784 11.0587 17.2068L14.4245 23.7383C14.4477 23.7806 14.4594 23.8283 14.4586 23.8765C14.4577 23.9248 14.4443 23.972 14.4196 24.0135C14.3949 24.055 14.3599 24.0893 14.3179 24.1131C14.2759 24.1369 14.2284 24.1494 14.1802 24.1493H10.57C10.4589 24.1493 10.3589 24.0826 10.3145 23.9826L8.05947 18.5951L5.79339 23.9826C5.77171 24.0323 5.73597 24.0746 5.69057 24.1042C5.64517 24.1338 5.5921 24.1494 5.5379 24.1493H1.92771C1.71666 24.1493 1.59446 23.9271 1.68333 23.7383L5.06021 17.2068C3.28289 16.7847 1.57221 15.9849 0.10591 14.7741C0.0501273 14.7302 0.013286 14.6666 0.00295601 14.5964C-0.00737397 14.5261 0.00959236 14.4546 0.0503682 14.3965L1.80547 12.0082C1.82844 11.9771 1.85742 11.9509 1.8907 11.9311C1.92398 11.9114 1.96089 11.8986 1.99922 11.8934C2.03755 11.8882 2.07654 11.8908 2.11386 11.901C2.15118 11.9112 2.18607 11.9287 2.21648 11.9526C3.82211 13.4045 5.89533 14.2322 8.05941 14.2854C10.2255 14.2854 12.2472 13.3745 13.9023 11.9526C14.0134 11.8416 14.2134 11.8638 14.3133 11.9971L14.3135 11.9971Z" fill="black"/>
</svg>
