<svg width="29" height="28" viewBox="0 0 29 28" fill="none" xmlns="http://www.w3.org/2000/svg">
<g clip-path="url(#clip0_620_35715)">
<path d="M26.3871 10.0465C26.3871 9.27379 26.3304 8.64597 26.3304 8.61972C26.3152 8.44606 26.2551 8.27887 26.1554 8.13355C24.0131 5.00147 21.2408 2.31695 18.0031 0.239412C17.8435 0.136674 17.6583 0.0770097 17.4667 0.0665994C16.795 0.0299587 16.0966 0.0179275 16.0326 0.0168337C13.241 -0.0477418 10.448 0.0633267 7.67131 0.349334H7.66168C6.53907 0.475115 5.42608 1.02199 4.52719 1.89043C3.62831 2.75887 3.06133 3.83402 2.93106 4.91738V4.92668C2.44225 9.34652 2.44225 17.3954 2.93106 21.8158V21.8251C3.06133 22.9085 3.62831 23.9836 4.52719 24.8515C5.42608 25.7194 6.53907 26.2668 7.66168 26.3926H7.67131C9.94361 26.6267 12.2272 26.7439 14.5124 26.7437C15.8004 26.7437 17.0854 26.7062 18.3673 26.6311C19.0479 27.1541 19.8293 27.5413 20.6662 27.7701C21.5032 27.9989 22.3788 28.0648 23.2424 27.9639C24.1059 27.8631 24.94 27.5974 25.6963 27.1825C26.4526 26.7676 27.1158 26.2117 27.6476 25.5471C28.1793 24.8824 28.5689 24.1224 28.7937 23.3111C29.0185 22.4998 29.074 21.6534 28.9569 20.8212C28.8399 19.989 28.5527 19.1876 28.112 18.4635C27.6713 17.7395 27.0859 17.1072 26.3899 16.6036C26.4511 14.4806 26.4511 12.1662 26.3871 10.0465ZM23.4763 8.06738C22.497 8.04168 21.5137 7.97824 20.5406 7.87761H20.5367C19.9731 7.81472 19.4101 7.53582 18.9507 7.09175C18.4914 6.64769 18.2025 6.10738 18.1368 5.56051C18.0337 4.63082 17.9669 3.68582 17.9425 2.74136C20.0464 4.24646 21.9108 6.04083 23.4763 8.06738ZM7.90524 24.3276C6.57588 24.1761 5.2267 22.8729 5.06981 21.59C4.60252 17.3637 4.60309 9.37988 5.06981 5.15308C5.2267 3.86957 6.57645 2.56637 7.90581 2.41543C10.5204 2.14661 13.15 2.03811 15.7789 2.09058C15.7907 3.32433 15.8632 4.56191 15.9981 5.77926V5.79949C16.1193 6.80683 16.6273 7.78738 17.4282 8.56121C18.2291 9.33504 19.2453 9.82504 20.2886 9.94152H20.3095C21.6123 10.0755 22.9314 10.1466 24.237 10.1548C24.2868 11.9048 24.2936 13.7828 24.2608 15.5689C23.3409 15.3138 22.3746 15.2548 21.4288 15.3961C21.3983 15.2171 21.303 15.0543 21.1598 14.9368C21.0167 14.8194 20.835 14.7548 20.6471 14.7546H8.3527C8.14239 14.7546 7.9407 14.8352 7.79199 14.9788C7.64328 15.1224 7.55973 15.3171 7.55973 15.5202C7.55973 15.7232 7.64328 15.918 7.79199 16.0616C7.9407 16.2052 8.14239 16.2858 8.3527 16.2858H18.957C18.0113 16.8591 17.2318 17.6546 16.6913 18.598H8.3527C8.14239 18.598 7.9407 18.6787 7.79199 18.8223C7.64328 18.9658 7.55973 19.1606 7.55973 19.3636C7.55973 19.5667 7.64328 19.7614 7.79199 19.905C7.9407 20.0486 8.14239 20.1293 8.3527 20.1293H16.0683C15.6799 21.6447 15.8832 23.2452 16.6392 24.6251C13.7243 24.7234 10.8058 24.624 7.90524 24.3276ZM22.4381 25.9218C21.5657 25.922 20.7129 25.6724 19.9874 25.2046C19.262 24.7369 18.6965 24.0719 18.3625 23.2938C18.0285 22.5157 17.9409 21.6594 18.1109 20.8333C18.2809 20.0072 18.7009 19.2483 19.3176 18.6526C19.9343 18.0569 20.7202 17.6512 21.5757 17.4867C22.4313 17.3222 23.3182 17.4064 24.1242 17.7286C24.9302 18.0508 25.6191 18.5966 26.1039 19.2968C26.5886 19.9971 26.8475 20.8204 26.8476 21.6627C26.8458 22.7915 26.3807 23.8735 25.5542 24.6718C24.7277 25.4701 23.6072 25.9196 22.4381 25.9218Z" fill="white"/>
<path d="M8.35352 12.4463H16.6797C16.89 12.4463 17.0917 12.3656 17.2404 12.222C17.3891 12.0785 17.4727 11.8837 17.4727 11.6807C17.4727 11.4776 17.3891 11.2829 17.2404 11.1393C17.0917 10.9957 16.89 10.915 16.6797 10.915H8.35352C8.14321 10.915 7.94151 10.9957 7.7928 11.1393C7.64409 11.2829 7.56055 11.4776 7.56055 11.6807C7.56055 11.8837 7.64409 12.0785 7.7928 12.222C7.94151 12.3656 8.14321 12.4463 8.35352 12.4463ZM24.0815 21.4916L23.2319 22.3119V19.1646C23.2319 18.9616 23.1483 18.7669 22.9996 18.6233C22.8509 18.4797 22.6492 18.399 22.4389 18.399C22.2286 18.399 22.0269 18.4797 21.8782 18.6233C21.7295 18.7669 21.6459 18.9616 21.6459 19.1646V22.3119L20.7963 21.4916C20.6476 21.348 20.4459 21.2673 20.2356 21.2673C20.0253 21.2673 19.8236 21.348 19.6748 21.4916C19.5261 21.6352 19.4426 21.8299 19.4426 22.033C19.4426 22.2361 19.5261 22.4308 19.6748 22.5744L21.8782 24.7018C21.9518 24.7729 22.0392 24.8293 22.1354 24.8677C22.2316 24.9062 22.3348 24.926 22.4389 24.926C22.543 24.926 22.6462 24.9062 22.7424 24.8677C22.8386 24.8293 22.926 24.7729 22.9996 24.7018L25.203 22.5744C25.3517 22.4308 25.4352 22.2361 25.4352 22.033C25.4352 21.8299 25.3517 21.6352 25.203 21.4916C25.0543 21.348 24.8525 21.2673 24.6422 21.2673C24.4319 21.2673 24.2302 21.348 24.0815 21.4916Z" fill="white"/>
</g>
<defs>
<clipPath id="clip0_620_35715">
<rect width="29" height="28" fill="white"/>
</clipPath>
</defs>
</svg>
