<svg width="26" height="25" viewBox="0 0 26 25" fill="none" xmlns="http://www.w3.org/2000/svg">
<g clip-path="url(#clip0_2062_4409)">
<path d="M25.2924 18.3475L21.664 14.8587C20.3682 13.6126 18.1652 14.1111 17.6469 15.7309C17.2581 16.8523 15.9623 17.4753 14.796 17.2261C12.2043 16.6031 8.70552 13.3634 8.0576 10.7468C7.66885 9.62537 8.44636 8.37936 9.61262 8.00561C11.2972 7.5072 11.8156 5.38899 10.5197 4.14298L6.89134 0.654155C5.85466 -0.218052 4.29964 -0.218052 3.39254 0.654155L0.93043 3.02157C-1.53168 5.51359 1.1896 12.1174 7.28009 17.9737C13.3706 23.8299 20.2386 26.5712 22.8303 24.0791L25.2924 21.7117C26.1995 20.7149 26.1995 19.2197 25.2924 18.3475Z" fill="#8F8F8F"/>
</g>
<defs>
<clipPath id="clip0_2062_4409">
<rect width="26" height="25" fill="white"/>
</clipPath>
</defs>
</svg>
