<svg width="18" height="18" viewBox="0 0 18 18" fill="none" xmlns="http://www.w3.org/2000/svg">
<g opacity="0.4">
<path d="M7.81203 0.00328232C5.74122 0.00675394 3.75621 0.83092 2.29193 2.29521C0.827637 3.7595 0.00347161 5.7445 0 7.81531C0.00173072 9.88787 0.82492 11.8752 2.28921 13.342C3.7535 14.8087 5.73948 15.6353 7.81203 15.6405C9.65016 15.6405 11.3439 14.9938 12.6831 13.9238L15.9359 17.1766C16.1007 17.3298 16.3184 17.4132 16.5434 17.4093C16.7684 17.4054 16.9831 17.3144 17.1424 17.1555C17.3017 16.9966 17.3933 16.7821 17.3978 16.5572C17.4024 16.3322 17.3196 16.1142 17.1668 15.949L13.914 12.6929C15.0249 11.3112 15.6306 9.59152 15.6306 7.8186C15.6306 3.51213 12.1185 0.00328232 7.81203 0.00328232ZM7.81203 1.74294C11.1797 1.74294 13.891 4.45089 13.891 7.81531C13.891 11.1797 11.1797 13.9041 7.81203 13.9041C4.44432 13.9041 1.73637 11.1896 1.73637 7.82188C1.73637 4.45417 4.44432 1.74294 7.81203 1.74294Z" fill="#FACDD4"/>
</g>
</svg>
