<svg width="29" height="30" viewBox="0 0 29 30" fill="none" xmlns="http://www.w3.org/2000/svg">
<path d="M27.2033 7.77917L20.1997 0.255467C20.0879 0.135719 19.9441 0.0531901 19.7867 0.0184363C19.6293 -0.0163174 19.4655 -0.00171589 19.3162 0.0603732C19.1667 0.122792 19.0386 0.229983 18.9484 0.368201C18.8582 0.50642 18.8099 0.669367 18.8098 0.836151V4.45882H18.5405C12.748 4.45882 8.03516 9.33418 8.03516 15.3264V16.9983C8.03516 17.3861 8.2991 17.7094 8.66431 17.7976C8.72371 17.8131 8.7829 17.8198 8.8421 17.8198C9.1471 17.8198 9.43908 17.6347 9.58015 17.3438C11.0951 14.2083 14.1411 12.2611 17.5297 12.2611H18.8098V15.8836C18.8097 16.0503 18.8579 16.2131 18.9482 16.3512C19.0385 16.4893 19.1666 16.5963 19.3162 16.6583C19.619 16.7865 19.9712 16.7085 20.1997 16.4632L27.2033 8.9395C27.505 8.6152 27.505 8.10473 27.2033 7.77923V7.77917Z" fill="black"/>
<path d="M24.1972 26.7513H4.80272C3.0206 26.7513 1.57031 25.2512 1.57031 23.4074V7.80285C1.57031 5.95928 3.0206 4.45898 4.80272 4.45898H8.03513C8.63095 4.45898 9.11253 4.95717 9.11253 5.57354C9.11253 6.18991 8.63095 6.68809 8.03513 6.68809H4.80272C4.20791 6.68809 3.72512 7.18753 3.72512 7.80285V23.4074C3.72512 24.0228 4.20791 24.5222 4.80272 24.5222H24.1972C24.7918 24.5222 25.2746 24.0228 25.2746 23.4074V14.4906C25.2746 13.8742 25.7561 13.3758 26.352 13.3758C26.9479 13.3758 27.4296 13.8742 27.4296 14.4906V23.4074C27.4296 25.2512 25.9793 26.7513 24.1972 26.7513Z" fill="black"/>
</svg>
