<svg width="37" height="37" viewBox="0 0 37 37" fill="none" xmlns="http://www.w3.org/2000/svg">
<g clip-path="url(#clip0_620_35109)">
<path d="M18.485 0C8.27637 0 0 8.27637 0 18.485C0 28.6936 8.27637 36.97 18.485 36.97C28.6936 36.97 36.97 28.6936 36.97 18.485C36.97 8.27637 28.6936 0 18.485 0ZM33.0968 16.6076H27.4964C27.2841 13.7692 26.5874 11.0224 25.4183 8.41862C24.8085 7.05987 24.0764 5.75937 23.2312 4.53316C25.3432 5.24945 27.2784 6.44592 28.9016 8.06914C31.236 10.4036 32.6903 13.3843 33.0975 16.6076H33.0968ZM18.485 32.4C17.043 30.797 15.8661 28.9926 14.9772 27.0127C14.0262 24.8963 13.4464 22.6658 13.2428 20.3624H23.7287C23.5243 22.6665 22.9445 24.8963 21.9943 27.0127C21.1054 28.9918 19.9284 30.797 18.4864 32.4H18.485ZM13.242 16.6076C13.4471 14.2891 14.0334 12.0456 14.9952 9.91691C15.8827 7.95216 17.0524 6.1607 18.4843 4.56926C19.927 6.17226 21.1032 7.97743 21.9928 9.95663C22.9438 12.073 23.5236 14.3035 23.7272 16.6069H13.242V16.6076ZM8.06914 8.06914C9.69163 6.44664 11.6268 5.25017 13.7381 4.53388C12.9031 5.74578 12.1786 7.0302 11.5733 8.37168C10.3906 10.9892 9.68729 13.7526 9.47356 16.6083H3.87319C4.28043 13.385 5.73468 10.4043 8.06914 8.06986V8.06914ZM3.87319 20.3624H9.47356C9.68585 23.2008 10.3826 25.9476 11.5517 28.5514C12.1615 29.9101 12.8936 31.2106 13.7388 32.4368C11.6268 31.7206 9.69163 30.5241 8.06841 28.9009C5.73396 26.5664 4.27971 23.5857 3.87246 20.3624H3.87319ZM28.9009 28.9009C27.2777 30.5241 25.3425 31.7206 23.2304 32.4368C24.0757 31.2106 24.8078 29.9101 25.4176 28.5514C26.5874 25.9476 27.2834 23.2008 27.4957 20.3624H33.0961C32.6888 23.5857 31.2346 26.5664 28.9001 28.9009H28.9009Z" fill="black"/>
</g>
<defs>
<clipPath id="clip0_620_35109">
<rect width="36.97" height="36.97" fill="white"/>
</clipPath>
</defs>
</svg>
