<svg width="19" height="18" viewBox="0 0 19 18" fill="none" xmlns="http://www.w3.org/2000/svg">
<g clip-path="url(#clip0_620_31453)">
<path d="M14.4348 17.7455L18.7394 13.6673C18.9065 13.5088 19.0002 13.294 19 13.07C18.9998 12.846 18.9056 12.6313 18.7383 12.4731C18.571 12.3149 18.3442 12.2261 18.1078 12.2263C17.8714 12.2265 17.6447 12.3156 17.4777 12.4741L14.6849 15.1207C14.6844 15.1212 14.6837 15.1215 14.683 15.1216C14.6823 15.1218 14.6815 15.1217 14.6809 15.1214C14.6802 15.1212 14.6796 15.1207 14.6792 15.1202C14.6788 15.1196 14.6786 15.1189 14.6786 15.1182V0.84375C14.6786 0.619974 14.5847 0.405362 14.4177 0.247129C14.2507 0.0888948 14.0241 0 13.7879 0C13.5517 0 13.3252 0.0888948 13.1582 0.247129C12.9911 0.405362 12.8973 0.619974 12.8973 0.84375V15.1172C12.8973 15.1179 12.8971 15.1185 12.8967 15.1191C12.8963 15.1197 12.8957 15.1201 12.895 15.1204C12.8943 15.1207 12.8936 15.1207 12.8929 15.1206C12.8922 15.1205 12.8915 15.1201 12.891 15.1196L10.1178 12.4924C9.74672 12.1409 9.13998 12.144 8.79561 12.522C8.64895 12.6833 8.57207 12.8911 8.5804 13.1039C8.58873 13.3166 8.68164 13.5185 8.84051 13.6691L13.1404 17.7455C13.2254 17.826 13.3263 17.8899 13.4373 17.9335C13.5483 17.9771 13.6674 17.9995 13.7876 17.9995C13.9078 17.9995 14.0268 17.9771 14.1378 17.9335C14.2489 17.8899 14.3498 17.826 14.4348 17.7455ZM6.09776 17.1562V2.88281C6.09777 2.88212 6.09799 2.88145 6.0984 2.88089C6.09881 2.88032 6.09938 2.87987 6.10006 2.87961C6.10073 2.87935 6.10147 2.87928 6.10218 2.87941C6.10289 2.87954 6.10355 2.87987 6.10407 2.88035L8.89803 5.52727C9.06505 5.68554 9.2916 5.77448 9.52783 5.77451C9.76407 5.77454 9.99064 5.68567 10.1577 5.52744C10.3248 5.36921 10.4187 5.15459 10.4187 4.93079C10.4187 4.70699 10.3249 4.49234 10.1579 4.33406L5.85321 0.255938C5.76822 0.175352 5.6673 0.111424 5.55622 0.0678069C5.44514 0.0241903 5.32608 0.00174034 5.20583 0.00174034C5.08559 0.00174034 4.96653 0.0241903 4.85545 0.0678069C4.74437 0.111424 4.64345 0.175352 4.55846 0.255938L0.258968 4.32984C0.100047 4.48037 0.0070657 4.68225 -0.00133071 4.895C-0.00972713 5.10775 0.0670819 5.31564 0.213695 5.47699C0.55807 5.85492 1.16369 5.85914 1.53627 5.50652L4.3102 2.8793C4.31072 2.87882 4.31137 2.87849 4.31209 2.87836C4.3128 2.87822 4.31354 2.87829 4.31421 2.87856C4.31488 2.87882 4.31546 2.87926 4.31587 2.87983C4.31627 2.8804 4.3165 2.88107 4.31651 2.88176V17.1562C4.31651 17.38 4.41034 17.5946 4.57737 17.7529C4.74439 17.9111 4.97092 18 5.20713 18C5.44334 18 5.66988 17.9111 5.8369 17.7529C6.00392 17.5946 6.09776 17.38 6.09776 17.1562Z" fill="black"/>
</g>
<defs>
<clipPath id="clip0_620_31453">
<rect width="19" height="18" fill="white"/>
</clipPath>
</defs>
</svg>
