<svg width="322" height="93" viewBox="0 0 322 93" fill="none" xmlns="http://www.w3.org/2000/svg">
<path d="M9.28364 -3.8147e-06L13.38 28.0862H14.8361L18.8413 -3.8147e-06H31.0385V8.48028H26.7603L21.3897 41.3996C23.8172 42.0685 25.7137 43.3458 27.0787 45.2296C28.444 47.1144 29.1272 49.4856 29.1272 52.3425C29.1272 55.9286 28.0954 58.7255 26.0324 60.732C23.9688 62.7377 21.2075 63.7404 17.749 63.7404H11.6502C8.19166 63.7404 5.4304 62.7377 3.36744 60.732C1.3038 58.7255 0.272663 55.9286 0.272663 52.3425C0.272663 48.7554 1.3038 45.9591 3.36744 43.9534C5.4304 41.9469 8.19166 40.9442 11.6502 40.9442H13.0162L13.6527 36.5666H6.18888L0 -3.8147e-06H9.28364ZM8.64656 52.3425C8.64656 54.5921 10.0731 55.7164 12.9248 55.7164H16.4748C19.3268 55.7164 20.753 54.5921 20.753 52.3425C20.753 50.0929 19.3268 48.9683 16.4748 48.9683H12.9248C10.0731 48.9683 8.64656 50.0929 8.64656 52.3425ZM36.864 -3.8147e-06H45.966V22.8884H54.8863V-3.8147e-06H63.9887V63.2851H54.8863V31.3689H45.966V63.2851H36.864V-3.8147e-06ZM72.5452 -3.8147e-06H81.6469V24.9864L90.6584 17.3262V-3.8147e-06H99.669V63.2851H90.6584V28.451L81.6469 36.1106V63.2851H72.5452V-3.8147e-06ZM108.226 -3.8147e-06H135.442V5.92714C135.442 14.9853 133.713 21.6425 130.253 25.8978C133.469 28.8157 135.078 32.9192 135.078 38.2083L134.986 40.1224L133.621 63.2851H108.226V-3.8147e-06ZM117.329 22.8884C119.816 22.8884 121.94 21.7187 123.699 19.3774C125.459 17.0372 126.339 13.7694 126.339 9.57535V8.48028H117.329V22.8884ZM125.156 54.805L126.066 40.1224C126.309 35.5026 125.217 32.3715 122.79 30.7309C121.151 31.156 119.33 31.3689 117.329 31.3689V54.805H125.156ZM142.36 12.4019C142.36 8.32844 143.512 5.24337 145.818 3.14637C148.124 1.0485 151.219 -3.8147e-06 155.102 -3.8147e-06H168.301V17.8728H159.198V8.48028H155.739C152.887 8.48028 151.462 9.97043 151.462 12.9492V22.8884H163.294V31.3689H151.462V54.805H159.017V42.4936H168.119V63.2851H142.36V12.4019ZM175.947 -3.8147e-06H203.162V10.6686C203.162 27.6301 197.125 36.1106 185.049 36.1106V63.2851H175.947V-3.8147e-06ZM185.049 27.6301C187.537 27.6301 189.662 26.46 191.421 24.1198C193.18 21.7789 194.061 18.5118 194.061 14.3171V8.48028H185.049V27.6301ZM207.441 33.4669C207.137 26.8403 208.684 21.9618 212.082 18.8307C215.481 15.699 219.88 14.1342 225.281 14.1342L225.372 8.48028H208.442V-3.8147e-06H234.475V17.0526C236.841 15.1069 239.785 14.1342 243.304 14.1342L243.394 -3.8147e-06H252.497V63.2851H243.394V22.6152C240.421 22.6152 238.191 23.4664 236.705 25.1683C235.218 26.8696 234.475 29.6355 234.475 33.4669V63.2851H225.372V22.6152C219.122 22.6152 216.148 26.2323 216.452 33.4669L217.908 63.2851H208.806L207.441 33.4669ZM259.778 33.4669C259.475 26.8403 261.023 21.9618 264.421 18.8307C267.819 15.699 272.25 14.1342 277.71 14.1342L277.802 8.48028H260.78V-3.8147e-06H286.904V63.2851H277.802V42.6765H269.245L270.246 63.2851H261.144L259.778 33.4669ZM268.791 34.1954H277.802V22.6152C274.767 22.6152 272.461 23.4664 270.884 25.1683C269.306 26.8696 268.608 29.6355 268.791 33.4669V34.1954ZM295.46 -3.8147e-06H321.311V17.8728H312.208V8.48028H304.562V63.2851H295.46V-3.8147e-06Z" fill="#ED1D24"/>
<path d="M41.8495 88.7248C40.4213 88.7248 39.2332 88.2472 38.2851 87.291C37.3373 86.3347 36.8633 85.1474 36.8633 83.7298C36.8633 82.3114 37.3373 81.1242 38.2851 80.1679C39.2332 79.2117 40.4213 78.7337 41.8495 78.7337C42.7848 78.7337 43.6257 78.9581 44.3711 79.408C45.1168 79.8573 45.6732 80.4626 46.0397 81.2215L44.6552 82.0191C44.4155 81.5129 44.046 81.1086 43.5463 80.8042C43.0474 80.5007 42.4812 80.3488 41.8495 80.3488C40.9014 80.3488 40.1087 80.6715 39.4702 81.3171C38.8318 81.9631 38.5127 82.7668 38.5127 83.7298C38.5127 84.6793 38.8318 85.4768 39.4702 86.1225C40.1087 86.7686 40.9014 87.0909 41.8495 87.0909C42.4812 87.0909 43.0501 86.9427 43.5557 86.6449C44.0614 86.3475 44.4467 85.945 44.7123 85.4388L46.1153 86.2552C45.7108 87.003 45.1292 87.6005 44.3711 88.0505C43.6125 88.4998 42.7721 88.7248 41.8495 88.7248Z" fill="#266D68"/>
<path d="M55.7656 86.9039H57.0737V91.0256H55.4431V88.4809H48.3337V91.0256H46.7031V86.9039H47.8593C48.4665 86.0683 48.7694 84.8965 48.7694 83.3903V78.9833H55.7656V86.9039ZM49.7364 86.9039H54.1349V80.5222H50.4V83.3903C50.4 84.8086 50.1788 85.9794 49.7364 86.9039Z" fill="#266D68"/>
<path d="M59.632 84.4893C59.7967 85.3377 60.1854 85.9966 60.7987 86.4647C61.4112 86.9333 62.1667 87.1667 63.064 87.1667C64.3153 87.1667 65.2252 86.7056 65.7944 85.781L67.197 86.5779C66.2744 88.0101 64.8839 88.7248 63.026 88.7248C61.5218 88.7248 60.299 88.2533 59.3574 87.3098C58.4159 86.3657 57.9453 85.1734 57.9453 83.7298C57.9453 82.2986 58.4062 81.1086 59.3291 80.1585C60.252 79.209 61.4462 78.7337 62.9121 78.7337C64.303 78.7337 65.437 79.2245 66.3155 80.2056C67.1943 81.1871 67.6334 82.3683 67.6334 83.748C67.6334 83.9884 67.6145 84.236 67.5762 84.4893H59.632ZM62.9121 80.2912C62.0275 80.2912 61.2946 80.5411 60.7129 81.0413C60.1316 81.5421 59.7712 82.2097 59.632 83.046H65.9648C65.8256 82.1467 65.4719 81.4629 64.903 80.9948C64.3342 80.5256 63.6705 80.2912 62.9121 80.2912Z" fill="#266D68"/>
<path d="M77.0559 78.9792V88.4768H75.4068V80.5743H71.6715V84.4501C71.6715 86.0073 71.3585 87.0928 70.7332 87.7068C70.1071 88.3215 69.2256 88.5779 68.0879 88.4768V86.9187C68.7328 87.0066 69.2166 86.8651 69.5387 86.4919C69.8611 86.1177 70.0221 85.4246 70.0221 84.4121V78.9792H77.0559Z" fill="#266D68"/>
<path d="M87.4074 78.9806H89.0565V88.4782H87.4074V86.8443C86.5855 88.098 85.3913 88.7248 83.824 88.7248C82.4969 88.7248 81.3657 88.2401 80.4307 87.2711C79.495 86.3027 79.0273 85.1222 79.0273 83.7298C79.0273 82.3357 79.495 81.1551 80.4307 80.1868C81.3657 79.2177 82.4969 78.7337 83.824 78.7337C85.3913 78.7337 86.5855 79.3609 87.4074 80.6135V78.9806ZM84.0324 87.1296C84.9933 87.1296 85.7961 86.8029 86.4409 86.1512C87.0847 85.4984 87.4074 84.6921 87.4074 83.7298C87.4074 82.7668 87.0847 81.9594 86.4409 81.3077C85.7961 80.6549 84.9933 80.3289 84.0324 80.3289C83.0846 80.3289 82.2882 80.6549 81.6437 81.3077C80.9992 81.9594 80.6768 82.7668 80.6768 83.7298C80.6768 84.6921 80.9992 85.4984 81.6437 86.1512C82.2882 86.8029 83.0846 87.1296 84.0324 87.1296Z" fill="#266D68"/>
<path d="M98.1227 78.9811H99.7717V88.4787H98.1227V84.508H93.2124V88.4787H91.5625V78.9811H93.2124V82.932H98.1227V78.9811Z" fill="#266D68"/>
<path d="M110.272 87.2815C109.299 88.2438 108.117 88.7248 106.727 88.7248C105.336 88.7248 104.158 88.2438 103.19 87.2815C102.224 86.3192 101.74 85.1353 101.74 83.7298C101.74 82.3243 102.224 81.1403 103.19 80.1773C104.158 79.215 105.336 78.7337 106.727 78.7337C108.117 78.7337 109.299 79.215 110.272 80.1773C111.246 81.1403 111.732 82.3243 111.732 83.7298C111.732 85.1353 111.246 86.3192 110.272 87.2815ZM106.727 87.1108C107.675 87.1108 108.471 86.7874 109.115 86.1424C109.761 85.4957 110.083 84.6921 110.083 83.7298C110.083 82.7668 109.761 81.9631 109.115 81.3171C108.471 80.6715 107.675 80.3488 106.727 80.3488C105.791 80.3488 105.001 80.6715 104.357 81.3171C103.712 81.9631 103.39 82.7668 103.39 83.7298C103.39 84.6921 103.712 85.4957 104.357 86.1424C105.001 86.7874 105.791 87.1108 106.727 87.1108Z" fill="#266D68"/>
<path d="M124.742 83.5965C125.715 84.0017 126.201 84.7366 126.201 85.8007C126.201 86.5851 125.939 87.2274 125.415 87.7276C124.89 88.2278 124.141 88.4787 123.168 88.4787H118.428V78.9811H122.789C123.736 78.9811 124.47 79.2182 124.988 79.6931C125.506 80.1684 125.765 80.7918 125.765 81.5641C125.765 82.4766 125.423 83.1533 124.742 83.5965ZM122.713 80.4631H120.039V82.9508H122.713C123.674 82.9508 124.154 82.5265 124.154 81.678C124.154 80.8676 123.674 80.4631 122.713 80.4631ZM123.073 86.9775C123.553 86.9775 123.923 86.8637 124.181 86.636C124.441 86.4076 124.57 86.0849 124.57 85.6676C124.57 85.2745 124.441 84.9677 124.181 84.7461C123.923 84.5245 123.553 84.414 123.073 84.414H120.039V86.9775H123.073Z" fill="#266D68"/>
<path d="M139.777 78.9811V80.5762H136.553V88.4787H134.904V80.5762H131.662V78.9811H139.777Z" fill="#266D68"/>
<path d="M147.89 78.9799H149.653L145.786 89.0656C145.381 90.1418 144.812 90.9616 144.079 91.5257C143.346 92.0886 142.511 92.3388 141.577 92.2758V90.7376C142.739 90.8255 143.592 90.1933 144.136 88.8379L144.288 88.4964L140.174 78.9799H141.918L145.16 86.4263L147.89 78.9799Z" fill="#266D68"/>
<path d="M158.357 78.9792V88.4768H156.707V80.5743H152.972V84.4501C152.972 86.0073 152.659 87.0928 152.034 87.7068C151.408 88.3215 150.527 88.5779 149.389 88.4768V86.9187C150.033 87.0066 150.517 86.8651 150.839 86.4919C151.162 86.1177 151.323 85.4246 151.323 84.4121V78.9792H158.357Z" fill="#266D68"/>
<path d="M164.858 82.4008C165.806 82.4008 166.593 82.6817 167.218 83.2455C167.844 83.8087 168.157 84.54 168.157 85.4392C168.157 86.3386 167.844 87.0698 167.218 87.6329C166.593 88.1958 165.806 88.4787 164.858 88.4787H160.857V78.9811H162.507V82.4008H164.858ZM164.858 86.9394C165.325 86.9394 165.72 86.8034 166.043 86.5319C166.365 86.2594 166.527 85.8946 166.527 85.4392C166.527 84.9832 166.365 84.6157 166.043 84.3372C165.72 84.0596 165.325 83.9192 164.858 83.9192H162.507V86.9394H164.858Z" fill="#266D68"/>
<path d="M174.302 88.7248C172.874 88.7248 171.687 88.2472 170.738 87.291C169.791 86.3347 169.316 85.1474 169.316 83.7298C169.316 82.3114 169.791 81.1242 170.738 80.1679C171.687 79.2117 172.874 78.7337 174.302 78.7337C175.238 78.7337 176.078 78.9581 176.825 79.408C177.57 79.8573 178.126 80.4626 178.492 81.2215L177.109 82.0191C176.868 81.5129 176.499 81.1086 176 80.8042C175.5 80.5007 174.934 80.3488 174.302 80.3488C173.354 80.3488 172.561 80.6715 171.923 81.3171C171.285 81.9631 170.965 82.7668 170.965 83.7298C170.965 84.6793 171.285 85.4768 171.923 86.1225C172.561 86.7686 173.354 87.0909 174.302 87.0909C174.934 87.0909 175.503 86.9427 176.008 86.6449C176.514 86.3475 176.9 85.945 177.165 85.4388L178.569 86.2552C178.163 87.003 177.582 87.6005 176.825 88.0505C176.066 88.4998 175.225 88.7248 174.302 88.7248Z" fill="#266D68"/>
<path d="M188.237 88.4787H186.189L181.867 83.9768V88.4787H180.217V78.9811H181.867V83.1792L185.962 78.9811H188.085L183.554 83.5777L188.237 88.4787Z" fill="#266D68"/>
<path d="M196.899 87.2815C195.926 88.2438 194.744 88.7248 193.354 88.7248C191.963 88.7248 190.784 88.2438 189.817 87.2815C188.851 86.3192 188.367 85.1353 188.367 83.7298C188.367 82.3243 188.851 81.1403 189.817 80.1773C190.784 79.215 191.963 78.7337 193.354 78.7337C194.744 78.7337 195.926 79.215 196.899 80.1773C197.873 81.1403 198.359 82.3243 198.359 83.7298C198.359 85.1353 197.873 86.3192 196.899 87.2815ZM193.354 87.1108C194.302 87.1108 195.098 86.7874 195.742 86.1424C196.387 85.4957 196.71 84.6921 196.71 83.7298C196.71 82.7668 196.387 81.9631 195.742 81.3171C195.098 80.6715 194.302 80.3488 193.354 80.3488C192.418 80.3488 191.628 80.6715 190.984 81.3171C190.339 81.9631 190.017 82.7668 190.017 83.7298C190.017 84.6921 190.339 85.4957 190.984 86.1424C191.628 86.7874 192.418 87.1108 193.354 87.1108Z" fill="#266D68"/>
<path d="M201.865 77.5567V76.1131H206.983V77.5567H201.865ZM207.193 78.9811H208.521V88.4787H206.89V81.8111L201.638 88.4787H200.311V78.9811H201.941V85.6481L207.193 78.9811Z" fill="#266D68"/>
<path d="M223.763 87.2815C222.79 88.2438 221.608 88.7248 220.216 88.7248C218.826 88.7248 217.648 88.2438 216.682 87.2815C215.714 86.3192 215.23 85.1353 215.23 83.7298C215.23 82.3243 215.714 81.1403 216.682 80.1773C217.648 79.215 218.826 78.7337 220.216 78.7337C221.608 78.7337 222.79 79.215 223.763 80.1773C224.735 81.1403 225.223 82.3243 225.223 83.7298C225.223 85.1353 224.735 86.3192 223.763 87.2815ZM220.216 87.1108C221.165 87.1108 221.961 86.7874 222.607 86.1424C223.251 85.4957 223.573 84.6921 223.573 83.7298C223.573 82.7668 223.251 81.9631 222.607 81.3171C221.961 80.6715 221.165 80.3488 220.216 80.3488C219.282 80.3488 218.492 80.6715 217.848 81.3171C217.202 81.9631 216.88 82.7668 216.88 83.7298C216.88 84.6921 217.202 85.4957 217.848 86.1424C218.492 86.7874 219.282 87.1108 220.216 87.1108Z" fill="#266D68"/>
<path d="M231.479 88.7248C230.077 88.7248 228.92 88.2627 228.01 87.3374C227.101 86.4139 226.645 85.2232 226.645 83.7678C226.645 82.1467 226.882 80.8991 227.355 80.0255C227.83 79.1511 228.8 78.3606 230.266 77.6519C230.531 77.5243 230.895 77.3596 231.357 77.1578C231.817 76.9543 232.156 76.7997 232.371 76.6919C232.586 76.5852 232.826 76.4387 233.09 76.2558C233.356 76.0722 233.556 75.8688 233.688 75.6478C233.821 75.4262 233.918 75.1692 233.982 74.8778L235.309 75.6374C235.272 75.8402 235.22 76.0274 235.158 76.1978C235.095 76.3696 235.003 76.5333 234.883 76.6919C234.763 76.8499 234.658 76.986 234.57 77.0998C234.482 77.2147 234.333 77.338 234.125 77.4707C233.916 77.6034 233.764 77.7017 233.669 77.7658C233.574 77.8284 233.391 77.9234 233.119 78.05C232.848 78.177 232.664 78.2622 232.569 78.307C232.475 78.3501 232.263 78.4397 231.934 78.5728C231.606 78.7055 231.404 78.7906 231.328 78.8288C230.469 79.1962 229.839 79.5694 229.441 79.9497C229.043 80.3289 228.756 80.8109 228.578 81.3929C228.983 80.887 229.489 80.5128 230.096 80.272C230.702 80.0326 231.309 79.9116 231.915 79.9116C233.103 79.9116 234.112 80.3171 234.94 81.1265C235.768 81.9379 236.181 82.9824 236.181 84.2609C236.181 85.5526 235.739 86.6193 234.854 87.4617C233.969 88.3031 232.844 88.7248 231.479 88.7248ZM229.261 86.2933C229.856 86.8511 230.595 87.1296 231.479 87.1296C232.365 87.1296 233.094 86.8571 233.669 86.3122C234.244 85.7682 234.532 85.0845 234.532 84.2609C234.532 83.4125 234.257 82.7193 233.706 82.1811C233.157 81.6432 232.434 81.374 231.537 81.374C230.728 81.374 229.998 81.6301 229.347 82.1434C228.696 82.6563 228.37 83.3307 228.37 84.167C228.37 85.0275 228.667 85.7362 229.261 86.2933Z" fill="#266D68"/>
<path d="M245.491 78.9792V88.4768H243.842V80.5743H240.106V84.4501C240.106 86.0073 239.794 87.0928 239.168 87.7068C238.542 88.3215 237.661 88.5779 236.523 88.4768V86.9187C237.168 87.0066 237.651 86.8651 237.974 86.4919C238.296 86.1177 238.457 85.4246 238.457 84.4121V78.9792H245.491Z" fill="#266D68"/>
<path d="M255.845 78.9806H257.494V88.4782H255.845V86.8443C255.023 88.098 253.829 88.7248 252.261 88.7248C250.934 88.7248 249.803 88.2401 248.869 87.2711C247.933 86.3027 247.465 85.1222 247.465 83.7298C247.465 82.3357 247.933 81.1551 248.869 80.1868C249.803 79.2177 250.934 78.7337 252.261 78.7337C253.829 78.7337 255.023 79.3609 255.845 80.6135V78.9806ZM252.47 87.1296C253.43 87.1296 254.233 86.8029 254.878 86.1512C255.523 85.4984 255.845 84.6921 255.845 83.7298C255.845 82.7668 255.523 81.9594 254.878 81.3077C254.233 80.6549 253.43 80.3289 252.47 80.3289C251.522 80.3289 250.726 80.6549 250.081 81.3077C249.437 81.9594 249.115 82.7668 249.115 83.7298C249.115 84.6921 249.437 85.4984 250.081 86.1512C250.726 86.8029 251.522 87.1296 252.47 87.1296Z" fill="#266D68"/>
<path d="M264.453 88.7248C263.025 88.7248 261.836 88.2472 260.889 87.291C259.941 86.3347 259.467 85.1474 259.467 83.7298C259.467 82.3114 259.941 81.1242 260.889 80.1679C261.836 79.2117 263.025 78.7337 264.453 78.7337C265.388 78.7337 266.229 78.9581 266.975 79.408C267.721 79.8573 268.276 80.4626 268.643 81.2215L267.259 82.0191C267.018 81.5129 266.649 81.1086 266.15 80.8042C265.651 80.5007 265.085 80.3488 264.453 80.3488C263.504 80.3488 262.712 80.6715 262.073 81.3171C261.435 81.9631 261.116 82.7668 261.116 83.7298C261.116 84.6793 261.435 85.4768 262.073 86.1225C262.712 86.7686 263.504 87.0909 264.453 87.0909C265.085 87.0909 265.654 86.9427 266.16 86.6449C266.665 86.3475 267.051 85.945 267.315 85.4388L268.719 86.2552C268.314 87.003 267.734 87.6005 266.975 88.0505C266.216 88.4998 265.375 88.7248 264.453 88.7248Z" fill="#266D68"/>
<path d="M277.249 78.9811V80.5762H274.027V88.4787H272.377V80.5762H269.135V78.9811H277.249Z" fill="#266D68"/>
<path d="M285.573 78.9811H286.901V88.4787H285.27V81.8111L280.019 88.4787H278.691V78.9811H280.322V85.6481L285.573 78.9811Z" fill="#266D68"/>
</svg>
