<svg width="49" height="49" viewBox="0 0 49 49" fill="none" xmlns="http://www.w3.org/2000/svg">
<path fill-rule="evenodd" clip-rule="evenodd" d="M24.0143 0.951839C36.7531 0.951839 47.0799 11.2786 47.0799 24.0169C47.0799 36.7558 36.7531 47.082 24.0143 47.082C11.276 47.082 0.949219 36.7558 0.949219 24.0169C0.949219 11.2786 11.276 0.951839 24.0143 0.951839Z" fill="#D9E827"/>
<path d="M24.0148 1.90008C11.8208 1.90008 1.89986 11.821 1.89986 24.015C1.89986 36.2095 11.8208 46.1299 24.0148 46.1299C36.2092 46.1299 46.1297 36.2095 46.1297 24.015C46.1297 11.821 36.2092 1.90008 24.0148 1.90008ZM24.0148 48.0303C10.7731 48.0303 0 37.2571 0 24.015C0 10.7729 10.7731 -0.000274658 24.0148 -0.000274658C37.2569 -0.000274658 48.0301 10.7729 48.0301 24.015C48.0301 37.2571 37.2569 48.0303 24.0148 48.0303Z" fill="#266D68"/>
<path fill-rule="evenodd" clip-rule="evenodd" d="M24.0147 4.32311C34.8908 4.32311 43.7072 13.14 43.7072 24.0156C43.7072 34.8916 34.8908 43.708 24.0147 43.708C13.1391 43.708 4.32227 34.8916 4.32227 24.0156C4.32227 13.14 13.1391 4.32311 24.0147 4.32311Z" fill="#ED1D24"/>
<path d="M24.0157 5.2733C13.6815 5.2733 5.27341 13.6809 5.27341 24.0156C5.27341 34.3502 13.6815 42.7583 24.0157 42.7583C34.3504 42.7583 42.758 34.3502 42.758 24.0156C42.758 13.6809 34.3504 5.2733 24.0157 5.2733ZM24.0157 44.6582C12.6333 44.6582 3.37305 35.3984 3.37305 24.0156C3.37305 12.6332 12.6333 3.37293 24.0157 3.37293C35.398 3.37293 44.6583 12.6332 44.6583 24.0156C44.6583 35.3984 35.398 44.6582 24.0157 44.6582Z" fill="#266D68"/>
<path d="M24.0014 17.668C23.4769 17.668 23.0518 17.2429 23.0518 16.7178V7.64556C23.0518 7.12049 23.4769 6.69539 24.0014 6.69539C24.5265 6.69539 24.9516 7.12049 24.9516 7.64556V16.7178C24.9516 17.2429 24.5265 17.668 24.0014 17.668Z" fill="white"/>
<path d="M24.0018 17.6855C23.7707 17.6855 23.5391 17.6014 23.357 17.4332L20.0729 14.3965C19.6874 14.0402 19.6636 13.4394 20.0205 13.0539C20.3763 12.6689 20.9776 12.6451 21.3631 13.0015L24.0043 15.4437L26.6697 12.9985C27.0567 12.6441 27.658 12.6704 28.0123 13.0569C28.3667 13.4434 28.341 14.0447 27.9539 14.399L24.6442 17.4356C24.4625 17.6024 24.2319 17.6855 24.0018 17.6855Z" fill="white"/>
<path d="M24.0018 12.541C23.7707 12.541 23.5391 12.4569 23.357 12.2886L20.0729 9.25201C19.6874 8.8957 19.6636 8.29491 20.0205 7.9094C20.3763 7.52438 20.9776 7.50062 21.3631 7.85694L24.0043 10.2992L26.6697 7.85396C27.0567 7.49963 27.658 7.52537 28.0123 7.91187C28.3667 8.29887 28.341 8.90015 27.9539 9.25449L24.6442 12.2911C24.4625 12.4579 24.2319 12.541 24.0018 12.541Z" fill="white"/>
<path d="M24.0014 41.3359C23.4769 41.3359 23.0518 40.9103 23.0518 40.3858V31.3135C23.0518 30.789 23.4769 30.3634 24.0014 30.3634C24.5265 30.3634 24.9516 30.789 24.9516 31.3135V40.3858C24.9516 40.9103 24.5265 41.3359 24.0014 41.3359Z" fill="white"/>
<path d="M27.3116 35.2832C27.0825 35.2832 26.8518 35.2006 26.6697 35.0333L24.0043 32.5881L21.3631 35.0303C20.9776 35.3866 20.3763 35.3634 20.0205 34.9779C19.6636 34.5928 19.6874 33.9916 20.0729 33.6352L23.357 30.5986C23.7207 30.2626 24.2799 30.2616 24.6442 30.5957L27.9539 33.6328C28.341 33.9876 28.3667 34.5884 28.0123 34.9754C27.8248 35.1793 27.5684 35.2832 27.3116 35.2832Z" fill="white"/>
<path d="M27.3116 40.4295C27.0825 40.4295 26.8518 40.3468 26.6697 40.1796L24.0043 37.7343L21.3631 40.1766C20.9776 40.5334 20.3763 40.5101 20.0205 40.1246C19.6636 39.7391 19.6874 39.1378 20.0729 38.7815L23.357 35.7449C23.7207 35.4089 24.2799 35.4084 24.6442 35.7424L27.9539 38.779C28.341 39.1339 28.3667 39.7346 28.0123 40.1216C27.8248 40.326 27.5684 40.4295 27.3116 40.4295Z" fill="white"/>
<path fill-rule="evenodd" clip-rule="evenodd" d="M13.9462 11.3958C15.3551 11.3958 16.4973 12.538 16.4973 13.9474C16.4973 15.3563 15.3551 16.499 13.9462 16.499C12.5367 16.499 11.3945 15.3563 11.3945 13.9474C11.3945 12.538 12.5367 11.3958 13.9462 11.3958Z" fill="#D9E827"/>
<path d="M13.9461 12.3445C13.0633 12.3445 12.3447 13.0626 12.3447 13.9455C12.3447 14.8288 13.0633 15.5469 13.9461 15.5469C14.829 15.5469 15.5476 14.8288 15.5476 13.9455C15.5476 13.0626 14.829 12.3445 13.9461 12.3445ZM13.9461 17.4473C12.0151 17.4473 10.4443 15.8765 10.4443 13.9455C10.4443 12.0149 12.0151 10.4442 13.9461 10.4442C15.8772 10.4442 17.4479 12.0149 17.4479 13.9455C17.4479 15.8765 15.8772 17.4473 13.9461 17.4473Z" fill="#266D68"/>
<path fill-rule="evenodd" clip-rule="evenodd" d="M13.9462 31.533C15.3551 31.533 16.4973 32.6757 16.4973 34.0846C16.4973 35.494 15.3551 36.6357 13.9462 36.6357C12.5367 36.6357 11.3945 35.494 11.3945 34.0846C11.3945 32.6757 12.5367 31.533 13.9462 31.533Z" fill="#D9E827"/>
<path d="M13.9461 32.4832C13.0633 32.4832 12.3447 33.2013 12.3447 34.0846C12.3447 34.9675 13.0633 35.6856 13.9461 35.6856C14.829 35.6856 15.5476 34.9675 15.5476 34.0846C15.5476 33.2013 14.829 32.4832 13.9461 32.4832ZM13.9461 37.5859C12.0151 37.5859 10.4443 36.0152 10.4443 34.0846C10.4443 32.1536 12.0151 30.5823 13.9461 30.5823C15.8772 30.5823 17.4479 32.1536 17.4479 34.0846C17.4479 36.0152 15.8772 37.5859 13.9461 37.5859Z" fill="#266D68"/>
<path d="M16.7167 24.9521H7.64452C7.11994 24.9521 6.69434 24.5265 6.69434 24.002C6.69434 23.4769 7.11994 23.0518 7.64452 23.0518H16.7167C17.2418 23.0518 17.6669 23.4769 17.6669 24.002C17.6669 24.5265 17.2418 24.9521 16.7167 24.9521Z" fill="white"/>
<path d="M13.697 28.2627C13.4673 28.2627 13.2377 28.1801 13.0551 28.0128C12.6681 27.6579 12.6424 27.0572 12.9972 26.6702L15.4419 24.0047L12.9997 21.3635C12.6433 20.978 12.6671 20.3772 13.0521 20.0209C13.4376 19.6646 14.0389 19.6878 14.3947 20.0733L17.4314 23.3574C17.7674 23.7206 17.7684 24.2804 17.4343 24.6451L14.3977 27.9549C14.2102 28.1593 13.9538 28.2627 13.697 28.2627Z" fill="white"/>
<path d="M8.55243 28.2627C8.3228 28.2627 8.09317 28.1801 7.91056 28.0128C7.52356 27.6579 7.49783 27.0572 7.85266 26.6702L10.2974 24.0047L7.85513 21.3635C7.49882 20.978 7.52257 20.3772 7.90759 20.0209C8.2931 19.6646 8.89439 19.6878 9.25021 20.0733L12.2868 23.3574C12.6229 23.7206 12.6238 24.2804 12.2898 24.6451L9.25318 27.9549C9.06562 28.1593 8.80927 28.2627 8.55243 28.2627Z" fill="white"/>
<path fill-rule="evenodd" clip-rule="evenodd" d="M24.0142 20.539C25.9348 20.539 27.4917 22.096 27.4917 24.0161C27.4917 25.9368 25.9348 27.4932 24.0142 27.4932C22.094 27.4932 20.5371 25.9368 20.5371 24.0161C20.5371 22.096 22.094 20.539 24.0142 20.539Z" fill="#D9E827"/>
<path d="M24.0151 21.4887C22.622 21.4887 21.4882 22.6225 21.4882 24.0161C21.4882 25.4097 22.622 26.5435 24.0151 26.5435C25.4087 26.5435 26.5425 25.4097 26.5425 24.0161C26.5425 22.6225 25.4087 21.4887 24.0151 21.4887ZM24.0151 28.4434C21.5744 28.4434 19.5879 26.4574 19.5879 24.0161C19.5879 21.5749 21.5744 19.5884 24.0151 19.5884C26.4564 19.5884 28.4429 21.5749 28.4429 24.0161C28.4429 26.4574 26.4564 28.4434 24.0151 28.4434Z" fill="#266D68"/>
<path fill-rule="evenodd" clip-rule="evenodd" d="M34.0839 11.3958C35.4933 11.3958 36.635 12.538 36.635 13.9474C36.635 15.3563 35.4933 16.499 34.0839 16.499C32.6744 16.499 31.5322 15.3563 31.5322 13.9474C31.5322 12.538 32.6744 11.3958 34.0839 11.3958Z" fill="#D9E827"/>
<path d="M34.0838 12.3445C33.201 12.3445 32.4824 13.0626 32.4824 13.9455C32.4824 14.8288 33.201 15.5469 34.0838 15.5469C34.9667 15.5469 35.6848 14.8288 35.6848 13.9455C35.6848 13.0626 34.9667 12.3445 34.0838 12.3445ZM34.0838 17.4473C32.1528 17.4473 30.582 15.8765 30.582 13.9455C30.582 12.0149 32.1528 10.4442 34.0838 10.4442C36.0144 10.4442 37.5851 12.0149 37.5851 13.9455C37.5851 15.8765 36.0144 17.4473 34.0838 17.4473Z" fill="#266D68"/>
<path fill-rule="evenodd" clip-rule="evenodd" d="M34.0839 31.533C35.4933 31.533 36.635 32.6757 36.635 34.0846C36.635 35.494 35.4933 36.6357 34.0839 36.6357C32.6744 36.6357 31.5322 35.494 31.5322 34.0846C31.5322 32.6757 32.6744 31.533 34.0839 31.533Z" fill="#D9E827"/>
<path d="M34.0838 32.4832C33.201 32.4832 32.4824 33.2013 32.4824 34.0846C32.4824 34.9675 33.201 35.6856 34.0838 35.6856C34.9667 35.6856 35.6848 34.9675 35.6848 34.0846C35.6848 33.2013 34.9667 32.4832 34.0838 32.4832ZM34.0838 37.5859C32.1528 37.5859 30.582 36.0152 30.582 34.0846C30.582 32.1536 32.1528 30.5823 34.0838 30.5823C36.0144 30.5823 37.5851 32.1536 37.5851 34.0846C37.5851 36.0152 36.0144 37.5859 34.0838 37.5859Z" fill="#266D68"/>
<path d="M40.3842 24.9521H31.312C30.7874 24.9521 30.3623 24.5265 30.3623 24.002C30.3623 23.4769 30.7874 23.0518 31.312 23.0518H40.3842C40.9088 23.0518 41.3339 23.4769 41.3339 24.002C41.3339 24.5265 40.9088 24.9521 40.3842 24.9521Z" fill="white"/>
<path d="M34.3325 28.2627C34.0751 28.2627 33.8192 28.1593 33.6317 27.9549L30.5946 24.6451C30.2605 24.2804 30.2615 23.7206 30.5971 23.3574L33.6342 20.0733C33.9915 19.6878 34.5918 19.6641 34.9773 20.0209C35.3623 20.3772 35.3861 20.978 35.0297 21.3635L32.587 24.0047L35.0322 26.6702C35.387 27.0572 35.3608 27.6579 34.9743 28.0128C34.7922 28.1801 34.5616 28.2627 34.3325 28.2627Z" fill="white"/>
<path d="M39.4776 28.2627C39.2203 28.2627 38.9639 28.1593 38.7769 27.9549L35.7403 24.6451C35.4057 24.2804 35.4072 23.7206 35.7428 23.3574L38.7789 20.0733C39.1362 19.6878 39.737 19.6641 40.122 20.0209C40.5075 20.3772 40.5308 20.978 40.1749 21.3635L37.7322 24.0047L40.1774 26.6702C40.5317 27.0572 40.506 27.6579 40.119 28.0128C39.9369 28.1801 39.7063 28.2627 39.4776 28.2627Z" fill="white"/>
</svg>
