<svg width="24" height="14" viewBox="0 0 24 14" fill="none" xmlns="http://www.w3.org/2000/svg">
<path d="M23.185 12.0101C23.1568 11.9492 23.1304 11.8988 23.106 11.8584C22.7016 11.13 21.9288 10.236 20.7881 9.17615L20.764 9.15188L20.7519 9.13998L20.7397 9.12778H20.7274C20.2097 8.63424 19.8819 8.3024 19.7446 8.1325C19.4934 7.80886 19.4371 7.48126 19.5744 7.14933C19.6714 6.89855 20.0357 6.36892 20.6666 5.55973C20.9985 5.13089 21.2613 4.78719 21.4554 4.52824C22.8551 2.66732 23.462 1.47818 23.2758 0.960324L23.2035 0.839309C23.1549 0.766453 23.0295 0.699804 22.8275 0.63902C22.625 0.578364 22.3662 0.568333 22.0506 0.608756L18.5556 0.632899C18.4989 0.612836 18.4181 0.614707 18.3128 0.63902L18.1549 0.675533L18.0941 0.705925L18.0458 0.742437C18.0054 0.766581 17.9609 0.809045 17.9123 0.869743C17.8639 0.93023 17.8235 1.00121 17.7912 1.0821C17.4107 2.06106 16.9781 2.97124 16.4925 3.81261C16.1932 4.31431 15.9182 4.7491 15.6671 5.11725C15.4164 5.48526 15.206 5.75641 15.0363 5.93022C14.8662 6.10419 14.7128 6.24357 14.575 6.34886C14.4374 6.45419 14.3324 6.49869 14.2596 6.48241C14.1867 6.46613 14.1181 6.44998 14.0531 6.43383C13.9399 6.36097 13.8489 6.26189 13.7802 6.1365C13.7113 6.01111 13.6648 5.85328 13.6406 5.66315C13.6164 5.47289 13.6022 5.30925 13.5981 5.17165C13.5943 5.03423 13.596 4.83985 13.6042 4.58907C13.6127 4.33815 13.6164 4.16838 13.6164 4.07938C13.6164 3.77189 13.6224 3.43817 13.6345 3.07815C13.6467 2.71812 13.6566 2.43286 13.6649 2.22271C13.6731 2.01235 13.677 1.78979 13.677 1.55515C13.677 1.32052 13.6627 1.13651 13.6345 1.00296C13.6063 0.869283 13.5636 0.739062 13.5074 0.614579C13.4506 0.489186 13.3676 0.392188 13.2586 0.323328C13.1494 0.254553 13.0136 0.199975 12.852 0.159424C12.4232 0.0623829 11.8771 0.00988792 11.2136 0.00172676C9.70881 -0.0144255 8.74192 0.0827431 8.31312 0.293106C8.14323 0.381986 7.98948 0.503426 7.85202 0.657042C7.70635 0.8351 7.68603 0.93227 7.79119 0.948252C8.2767 1.02098 8.6204 1.19496 8.82269 1.47001L8.89558 1.61577C8.95229 1.72093 9.00891 1.9071 9.06557 2.17404C9.12214 2.44098 9.15865 2.73627 9.17472 3.05974C9.2151 3.65045 9.2151 4.1561 9.17472 4.57674C9.13421 4.99755 9.09596 5.32514 9.05945 5.55978C9.02293 5.79441 8.96835 5.98454 8.89558 6.13012C8.82269 6.27575 8.77419 6.36476 8.74987 6.39706C8.7256 6.42937 8.70537 6.44973 8.6893 6.45772C8.58474 6.49802 8.47364 6.51864 8.36158 6.51854C8.24822 6.51854 8.11075 6.46184 7.94897 6.34852C7.78724 6.2352 7.61938 6.07954 7.4454 5.88129C7.27143 5.683 7.07522 5.40591 6.8567 5.04996C6.63834 4.69401 6.41179 4.27333 6.17715 3.78791L5.98303 3.43588C5.86167 3.2094 5.6959 2.87964 5.48553 2.44689C5.27504 2.01396 5.089 1.59519 4.92726 1.19066C4.86261 1.02077 4.76548 0.891421 4.63605 0.802414L4.57531 0.765901C4.53493 0.733596 4.47011 0.699294 4.38119 0.662738C4.2914 0.626043 4.19776 0.599607 4.10205 0.583932L0.776841 0.608076C0.437047 0.608076 0.206494 0.685054 0.0850971 0.838798L0.0365127 0.911526C0.0122417 0.952035 0 1.01673 0 1.10578C0 1.19479 0.024271 1.30403 0.0728554 1.43337C0.558275 2.57424 1.08616 3.67451 1.6565 4.73435C2.22685 5.7942 2.72247 6.64793 3.14307 7.29479C3.56375 7.94211 3.99255 8.55305 4.42947 9.12731C4.86639 9.70178 5.1556 10.0699 5.29711 10.2317C5.43878 10.3937 5.55006 10.5148 5.63095 10.5957L5.9344 10.8869C6.12857 11.0811 6.4137 11.3137 6.78992 11.5847C7.16623 11.8559 7.58283 12.1228 8.03994 12.386C8.49713 12.6487 9.02901 12.8631 9.63587 13.0289C10.2426 13.1949 10.8332 13.2615 11.4077 13.2294H12.8033C13.0864 13.2049 13.3008 13.1159 13.4466 12.9623L13.4949 12.9015C13.5273 12.8532 13.5577 12.7782 13.5858 12.6772C13.6142 12.5761 13.6283 12.4647 13.6283 12.3435C13.62 11.9957 13.6465 11.6822 13.707 11.4031C13.7675 11.1241 13.8364 10.9137 13.9136 10.772C13.9906 10.6305 14.0776 10.5111 14.1744 10.4142C14.2714 10.3172 14.3405 10.2584 14.381 10.2382C14.4213 10.2178 14.4535 10.204 14.4778 10.1957C14.6719 10.131 14.9005 10.1937 15.1637 10.384C15.4266 10.5741 15.6733 10.8089 15.904 11.0879C16.1346 11.3671 16.4117 11.6804 16.7352 12.0283C17.059 12.3762 17.3421 12.6349 17.5847 12.805L17.8273 12.9506C17.9894 13.0478 18.1997 13.1368 18.4587 13.2177C18.7172 13.2986 18.9436 13.3188 19.1381 13.2784L22.2447 13.2299C22.552 13.2299 22.7911 13.179 22.9607 13.0781C23.1307 12.977 23.2316 12.8655 23.2642 12.7444C23.2966 12.6231 23.2984 12.4854 23.2703 12.3315C23.2416 12.1781 23.2132 12.0707 23.185 12.0101Z" fill="#8F8F8F"/>
</svg>
