<svg width="29" height="17" viewBox="0 0 29 17" fill="none" xmlns="http://www.w3.org/2000/svg">
<path d="M28.3469 14.684C28.3124 14.6096 28.2802 14.548 28.2504 14.4985C27.7559 13.608 26.8111 12.515 25.4163 11.2191L25.3869 11.1895L25.3721 11.1749L25.3572 11.16H25.3422C24.7092 10.5566 24.3084 10.1509 24.1405 9.94313C23.8334 9.54743 23.7646 9.1469 23.9325 8.74107C24.051 8.43445 24.4965 7.78691 25.2679 6.79756C25.6736 6.27324 25.9949 5.85301 26.2322 5.53642C27.9436 3.26118 28.6856 1.80728 28.458 1.17413L28.3696 1.02617C28.3102 0.937098 28.1569 0.855609 27.9098 0.781292C27.6623 0.707132 27.3458 0.694867 26.9599 0.744291L22.6868 0.773809C22.6176 0.749279 22.5187 0.751566 22.3899 0.781292L22.197 0.825935L22.1226 0.863093L22.0636 0.907735C22.0141 0.937253 21.9597 0.989172 21.9003 1.06338C21.8412 1.13734 21.7918 1.22413 21.7523 1.32302C21.287 2.51994 20.7581 3.63277 20.1644 4.66145C19.7984 5.27485 19.4623 5.80645 19.1553 6.25656C18.8487 6.70651 18.5915 7.03803 18.384 7.25053C18.1761 7.46324 17.9885 7.63365 17.82 7.76238C17.6518 7.89116 17.5233 7.94557 17.4344 7.92567C17.3453 7.90576 17.2614 7.88602 17.1819 7.86627C17.0435 7.77719 16.9322 7.65605 16.8483 7.50274C16.764 7.34943 16.7072 7.15647 16.6775 6.92401C16.648 6.69139 16.6306 6.49131 16.6256 6.32308C16.6209 6.15506 16.6231 5.9174 16.6331 5.61078C16.6434 5.30401 16.648 5.09644 16.648 4.98762C16.648 4.61167 16.6553 4.20365 16.6701 3.76347C16.685 3.32329 16.6971 2.97452 16.7073 2.71758C16.7173 2.46038 16.722 2.18827 16.722 1.9014C16.722 1.61452 16.7046 1.38955 16.6701 1.22626C16.6356 1.06282 16.5835 0.903608 16.5147 0.75141C16.4453 0.5981 16.3437 0.479505 16.2105 0.395314C16.077 0.311227 15.911 0.244498 15.7134 0.194919C15.1891 0.0762719 14.5215 0.0120894 13.7102 0.00211121C11.8704 -0.0176373 10.6882 0.101165 10.164 0.358363C9.95625 0.467032 9.76827 0.615509 9.6002 0.803327C9.4221 1.02103 9.39726 1.13983 9.52583 1.15937C10.1194 1.24829 10.5397 1.461 10.787 1.7973L10.8761 1.9755C10.9454 2.10408 11.0147 2.3317 11.0839 2.65807C11.1531 2.98444 11.1978 3.34548 11.2174 3.74097C11.2668 4.46319 11.2668 5.08142 11.2174 5.59571C11.1679 6.11021 11.1211 6.51074 11.0765 6.79762C11.0318 7.08449 10.9651 7.31695 10.8761 7.49494C10.787 7.67299 10.7277 7.78182 10.698 7.82131C10.6683 7.86081 10.6435 7.8857 10.6239 7.89547C10.4961 7.94475 10.3602 7.96996 10.2232 7.96984C10.0846 7.96984 9.91654 7.90052 9.71875 7.76196C9.521 7.62341 9.31577 7.4331 9.10306 7.19071C8.89035 6.94828 8.65046 6.60949 8.38328 6.17429C8.11631 5.7391 7.83931 5.22475 7.55244 4.63126L7.3151 4.20085C7.16672 3.92395 6.96404 3.52077 6.70684 2.99167C6.44949 2.46236 6.22202 1.95035 6.02427 1.45575C5.94523 1.24803 5.82648 1.08989 5.66823 0.981064L5.59396 0.936422C5.54459 0.896925 5.46534 0.854985 5.35662 0.810291C5.24685 0.765426 5.13236 0.733104 5.01533 0.713939L0.949798 0.743459C0.534352 0.743459 0.252469 0.837576 0.104043 1.02555L0.044642 1.11447C0.0149673 1.164 0 1.2431 0 1.35197C0 1.4608 0.0296747 1.59436 0.089076 1.7525C0.68257 3.14737 1.32798 4.4926 2.02531 5.78842C2.72264 7.08423 3.32861 8.12804 3.84285 8.91891C4.35719 9.71036 4.88146 10.4573 5.41566 11.1594C5.94985 11.8618 6.30345 12.3119 6.47646 12.5097C6.64968 12.7078 6.78573 12.8559 6.88463 12.9548L7.25564 13.3108C7.49304 13.5483 7.84165 13.8326 8.30164 14.164C8.76172 14.4955 9.27108 14.8218 9.82996 15.1436C10.3889 15.4648 11.0392 15.7269 11.7812 15.9297C12.5231 16.1326 13.2451 16.2141 13.9475 16.1748H15.6539C16 16.1449 16.2621 16.0361 16.4403 15.8482L16.4994 15.7739C16.5391 15.7148 16.5762 15.6231 16.6105 15.4997C16.6453 15.376 16.6625 15.2398 16.6625 15.0917C16.6524 14.6664 16.6848 14.2831 16.7588 13.9419C16.8327 13.6008 16.917 13.3436 17.0113 13.1703C17.1055 12.9973 17.2118 12.8513 17.3302 12.7329C17.4488 12.6142 17.5333 12.5423 17.5828 12.5176C17.6321 12.4927 17.6715 12.4758 17.7011 12.4657C17.9385 12.3866 18.2179 12.4632 18.5397 12.6959C18.8612 12.9283 19.1628 13.2154 19.4449 13.5565C19.7269 13.8979 20.0656 14.281 20.4612 14.7063C20.857 15.1317 21.2032 15.4479 21.4998 15.656L21.7964 15.834C21.9946 15.9528 22.2518 16.0616 22.5684 16.1605C22.8844 16.2594 23.1613 16.2841 23.399 16.2347L27.1973 16.1754C27.573 16.1754 27.8654 16.1132 28.0727 15.9898C28.2805 15.8662 28.4039 15.73 28.4437 15.5818C28.4834 15.4335 28.4856 15.2652 28.4513 15.0771C28.4161 14.8894 28.3814 14.7582 28.3469 14.684Z" fill="black"/>
</svg>
