<svg width="24" height="24" viewBox="0 0 24 24" fill="none" xmlns="http://www.w3.org/2000/svg">
<path fill-rule="evenodd" clip-rule="evenodd" d="M6.79993 21.8554C6.11724 22.5924 4.35197 23.8888 2.66949 23.6122C1.41838 23.4065 1.68403 22.2925 1.56403 21.1613C1.44848 20.4868 1.06941 18.5983 0.477588 16.441C-0.262189 13.7444 -0.244486 9.00673 1.26128 6.37928C2.7772 3.73412 6.42716 -0.57109 12.9314 0.0629012C19.4357 0.696892 22.7935 5.83923 23.3805 9.15007C23.9676 12.4609 23.9911 16.3353 20.0227 20.3975C16.0544 24.4598 9.19208 24.2995 6.79993 21.8554ZM14.3253 17.2488C11.9448 18.439 9.56233 17.4108 8.66867 16.7479C8.31894 17.1204 7.51099 17.8678 7.07703 17.8775C6.64307 17.8871 6.35851 17.0141 6.27047 16.5764C5.17192 11.6816 6.39513 9.13555 7.40619 7.90483C8.32523 6.65959 12.9314 3.92235 16.4016 7.90483C19.6447 11.6267 17.3009 15.761 14.3253 17.2488Z" fill="#8F8F8F"/>
</svg>
